<?xml version="1.0" standalone="no"?>
<!DOCTYPE svg PUBLIC "-//W3C//DTD SVG 20010904//EN"
 "http://www.w3.org/TR/2001/REC-SVG-20010904/DTD/svg10.dtd">
<svg version="1.0" xmlns="http://www.w3.org/2000/svg"
 width="1024.000000pt" height="1024.000000pt" viewBox="0 0 1024.000000 1024.000000"
 preserveAspectRatio="xMidYMid meet">
<metadata>
Created by potrace 1.11, written by Peter Selinger 2001-2013
</metadata>
<g transform="translate(0.000000,1024.000000) scale(0.100000,-0.100000)"
fill="#000000" stroke="none">
<path d="M4580 7810 c-93 -10 -155 -18 -300 -44 -14 -2 -63 -14 -110 -26 -540
-138 -985 -407 -1359 -818 -341 -376 -577 -870 -656 -1372 -24 -155 -30 -245
-30 -445 1 -263 20 -422 80 -655 169 -658 577 -1224 1153 -1599 177 -115 379
-213 582 -282 183 -62 281 -87 460 -115 19 -3 46 -7 60 -10 156 -26 536 -26
725 1 85 12 111 16 179 31 104 22 106 23 126 29 10 3 29 8 42 10 34 7 208 64
245 81 17 8 36 14 42 14 6 0 19 4 29 10 9 5 74 36 143 69 70 34 171 88 225
121 l99 60 3 -225 2 -225 900 0 900 0 0 2700 0 2700 -900 0 -900 0 0 -225 c0
-124 -2 -225 -6 -225 -3 0 -31 17 -62 38 -204 138 -567 287 -847 348 -54 12
-175 33 -220 39 -27 3 -66 8 -85 11 -58 9 -440 12 -520 4z m838 -1614 c418
-105 735 -390 855 -772 34 -107 42 -173 41 -329 -2 -205 -56 -379 -172 -555
-65 -98 -198 -235 -293 -302 -142 -101 -346 -185 -517 -212 -98 -16 -306 -19
-397 -5 -148 23 -324 82 -425 143 -19 12 -47 28 -62 35 -45 23 -179 134 -235
195 -73 78 -134 167 -181 261 -81 164 -111 303 -107 495 2 133 3 139 42 270
108 365 423 661 816 765 143 38 198 44 372 40 130 -3 179 -8 263 -29z"/>
</g>
</svg>
