<svg width="1221" height="915" viewBox="0 0 1221 915" fill="none" xmlns="http://www.w3.org/2000/svg">
<path d="M601 48V864" stroke="#323235"/>
<path d="M97 455H1105" stroke="#323235"/>
<circle cx="601" cy="47" r="4" fill="#323235"/>
<circle cx="601" cy="863" r="4" fill="#323235"/>
<circle cx="1105" cy="455" r="4" fill="#323235"/>
<circle cx="97" cy="455" r="4" fill="#323235"/>
<path d="M569.448 901H570.857V895.795H575.903V894.545H570.857V890.614H576.425V889.364H569.448V901ZM583.61 897.432C583.61 899.068 582.36 899.818 581.36 899.818C580.246 899.818 579.451 899 579.451 897.727V892.273H578.11V897.818C578.11 900.045 579.292 901.114 580.928 901.114C582.246 901.114 583.11 900.409 583.519 899.523H583.61V901H584.951V892.273H583.61V897.432ZM588.748 889.364H587.407V901H588.748V889.364ZM592.545 889.364H591.204V901H592.545V889.364ZM600.001 895.386H594.91V896.636H600.001V895.386ZM606.156 892.273H604.292V890.182H602.951V892.273H601.633V893.409H602.951V898.864C602.951 900.386 604.178 901.114 605.315 901.114C605.815 901.114 606.133 901.023 606.315 900.955L606.042 899.75C605.928 899.773 605.746 899.818 605.451 899.818C604.86 899.818 604.292 899.636 604.292 898.5V893.409H606.156V892.273ZM608.173 901H609.513V892.273H608.173V901ZM608.854 890.818C609.377 890.818 609.809 890.409 609.809 889.909C609.809 889.409 609.377 889 608.854 889C608.332 889 607.9 889.409 607.9 889.909C607.9 890.409 608.332 890.818 608.854 890.818ZM611.969 901H613.31V895.545C613.31 894.267 614.242 893.364 615.288 893.364C616.305 893.364 617.015 894.028 617.015 895.023V901H618.379V895.318C618.379 894.193 619.083 893.364 620.31 893.364C621.265 893.364 622.083 893.869 622.083 895.159V901H623.424V895.159C623.424 893.108 622.322 892.159 620.765 892.159C619.515 892.159 618.6 892.733 618.151 893.636H618.06C617.629 892.705 616.867 892.159 615.719 892.159C614.583 892.159 613.742 892.705 613.379 893.636H613.265V892.273H611.969V901ZM629.535 901.182C631.308 901.182 632.603 900.295 633.012 898.977L631.717 898.614C631.376 899.523 630.586 899.977 629.535 899.977C627.961 899.977 626.876 898.96 626.813 897.091H633.148V896.523C633.148 893.273 631.217 892.159 629.398 892.159C627.035 892.159 625.467 894.023 625.467 896.705C625.467 899.386 627.012 901.182 629.535 901.182ZM626.813 895.932C626.904 894.574 627.864 893.364 629.398 893.364C630.853 893.364 631.785 894.455 631.785 895.932H626.813Z" fill="#323235"/>
<path d="M565.893 26H567.303V20.7955H572.348V19.5455H567.303V15.6136H572.871V14.3636H565.893V26ZM575.009 26H576.349V20.4773C576.349 19.2955 577.281 18.4318 578.554 18.4318C578.912 18.4318 579.281 18.5 579.372 18.5227V17.1591C579.219 17.1477 578.866 17.1364 578.668 17.1364C577.622 17.1364 576.713 17.7273 576.395 18.5909H576.304V17.2727H575.009V26ZM584.355 26.1818C586.128 26.1818 587.423 25.2955 587.832 23.9773L586.537 23.6136C586.196 24.5227 585.406 24.9773 584.355 24.9773C582.781 24.9773 581.696 23.9602 581.634 22.0909H587.969V21.5227C587.969 18.2727 586.037 17.1591 584.219 17.1591C581.855 17.1591 580.287 19.0227 580.287 21.7045C580.287 24.3864 581.832 26.1818 584.355 26.1818ZM581.634 20.9318C581.724 19.5739 582.685 18.3636 584.219 18.3636C585.673 18.3636 586.605 19.4545 586.605 20.9318H581.634ZM593.668 26.1818C595.44 26.1818 596.736 25.2955 597.145 23.9773L595.849 23.6136C595.509 24.5227 594.719 24.9773 593.668 24.9773C592.094 24.9773 591.009 23.9602 590.946 22.0909H597.281V21.5227C597.281 18.2727 595.349 17.1591 593.531 17.1591C591.168 17.1591 589.599 19.0227 589.599 21.7045C589.599 24.3864 591.145 26.1818 593.668 26.1818ZM590.946 20.9318C591.037 19.5739 591.997 18.3636 593.531 18.3636C594.986 18.3636 595.918 19.4545 595.918 20.9318H590.946ZM600.662 14.3636H599.321V26H600.662V14.3636ZM605.686 26.2045C607.209 26.2045 608.004 25.3864 608.277 24.8182H608.345V26H609.686V20.25C609.686 17.4773 607.572 17.1591 606.459 17.1591C605.141 17.1591 603.641 17.6136 602.959 19.2045L604.232 19.6591C604.527 19.0227 605.226 18.3409 606.504 18.3409C607.737 18.3409 608.345 18.9943 608.345 20.1136V20.1591C608.345 20.8068 607.686 20.75 606.095 20.9545C604.476 21.1648 602.709 21.5227 602.709 23.5227C602.709 25.2273 604.027 26.2045 605.686 26.2045ZM605.891 25C604.822 25 604.05 24.5227 604.05 23.5909C604.05 22.5682 604.982 22.25 606.027 22.1136C606.595 22.0455 608.118 21.8864 608.345 21.6136V22.8409C608.345 23.9318 607.482 25 605.891 25ZM613.474 20.75C613.474 19.2273 614.418 18.3636 615.702 18.3636C616.946 18.3636 617.702 19.1761 617.702 20.5455V26H619.043V20.4545C619.043 18.2273 617.855 17.1591 616.088 17.1591C614.77 17.1591 613.952 17.75 613.543 18.6364H613.429V17.2727H612.134V26H613.474V20.75ZM625.038 26.1818C626.97 26.1818 628.243 25 628.47 23.4545H627.129C626.879 24.4091 626.084 24.9773 625.038 24.9773C623.447 24.9773 622.425 23.6591 622.425 21.6364C622.425 19.6591 623.47 18.3636 625.038 18.3636C626.22 18.3636 626.925 19.0909 627.129 19.8864H628.47C628.243 18.25 626.857 17.1591 625.016 17.1591C622.652 17.1591 621.084 19.0227 621.084 21.6818C621.084 24.2955 622.584 26.1818 625.038 26.1818ZM634.089 26.1818C635.862 26.1818 637.158 25.2955 637.567 23.9773L636.271 23.6136C635.93 24.5227 635.141 24.9773 634.089 24.9773C632.516 24.9773 631.43 23.9602 631.368 22.0909H637.703V21.5227C637.703 18.2727 635.771 17.1591 633.953 17.1591C631.589 17.1591 630.021 19.0227 630.021 21.7045C630.021 24.3864 631.567 26.1818 634.089 26.1818ZM631.368 20.9318C631.459 19.5739 632.419 18.3636 633.953 18.3636C635.408 18.3636 636.339 19.4545 636.339 20.9318H631.368Z" fill="#323235"/>
<path d="M1126.41 460H1127.82V455.75H1130.36C1133.07 455.75 1134.3 454.102 1134.3 452.045C1134.3 449.989 1133.07 448.364 1130.34 448.364H1126.41V460ZM1127.82 454.5V449.614H1130.3C1132.19 449.614 1132.91 450.648 1132.91 452.045C1132.91 453.443 1132.19 454.5 1130.32 454.5H1127.82ZM1136.38 460H1137.72V454.477C1137.72 453.295 1138.66 452.432 1139.93 452.432C1140.29 452.432 1140.66 452.5 1140.75 452.523V451.159C1140.59 451.148 1140.24 451.136 1140.04 451.136C1139 451.136 1138.09 451.727 1137.77 452.591H1137.68V451.273H1136.38V460ZM1145.62 460.182C1147.98 460.182 1149.57 458.386 1149.57 455.682C1149.57 452.955 1147.98 451.159 1145.62 451.159C1143.25 451.159 1141.66 452.955 1141.66 455.682C1141.66 458.386 1143.25 460.182 1145.62 460.182ZM1145.62 458.977C1143.82 458.977 1143 457.432 1143 455.682C1143 453.932 1143.82 452.364 1145.62 452.364C1147.41 452.364 1148.23 453.932 1148.23 455.682C1148.23 457.432 1147.41 458.977 1145.62 458.977ZM1154.91 460.182C1156.6 460.182 1157.16 459.136 1157.46 458.659H1157.62V460H1158.91V448.364H1157.57V452.659H1157.46C1157.16 452.205 1156.64 451.159 1154.94 451.159C1152.73 451.159 1151.21 452.909 1151.21 455.659C1151.21 458.432 1152.73 460.182 1154.91 460.182ZM1155.1 458.977C1153.41 458.977 1152.55 457.5 1152.55 455.636C1152.55 453.795 1153.39 452.364 1155.1 452.364C1156.73 452.364 1157.6 453.682 1157.6 455.636C1157.6 457.614 1156.71 458.977 1155.1 458.977ZM1167.06 456.432C1167.06 458.068 1165.81 458.818 1164.81 458.818C1163.69 458.818 1162.9 458 1162.9 456.727V451.273H1161.56V456.818C1161.56 459.045 1162.74 460.114 1164.37 460.114C1165.69 460.114 1166.56 459.409 1166.96 458.523H1167.06V460H1168.4V451.273H1167.06V456.432ZM1174.4 460.182C1176.33 460.182 1177.6 459 1177.83 457.455H1176.49C1176.24 458.409 1175.44 458.977 1174.4 458.977C1172.81 458.977 1171.78 457.659 1171.78 455.636C1171.78 453.659 1172.83 452.364 1174.4 452.364C1175.58 452.364 1176.28 453.091 1176.49 453.886H1177.83C1177.6 452.25 1176.22 451.159 1174.38 451.159C1172.01 451.159 1170.44 453.023 1170.44 455.682C1170.44 458.295 1171.94 460.182 1174.4 460.182ZM1183.59 451.273H1181.72V449.182H1180.38V451.273H1179.06V452.409H1180.38V457.864C1180.38 459.386 1181.61 460.114 1182.74 460.114C1183.24 460.114 1183.56 460.023 1183.74 459.955L1183.47 458.75C1183.36 458.773 1183.18 458.818 1182.88 458.818C1182.29 458.818 1181.72 458.636 1181.72 457.5V452.409H1183.59V451.273ZM1196.28 453.227C1195.86 451.989 1194.92 451.159 1193.19 451.159C1191.35 451.159 1189.99 452.205 1189.99 453.682C1189.99 454.886 1190.7 455.693 1192.31 456.068L1193.76 456.409C1194.64 456.614 1195.06 457.034 1195.06 457.636C1195.06 458.386 1194.26 459 1193.01 459C1191.91 459 1191.23 458.528 1190.99 457.591L1189.72 457.909C1190.03 459.392 1191.25 460.182 1193.03 460.182C1195.06 460.182 1196.44 459.074 1196.44 457.568C1196.44 456.352 1195.68 455.585 1194.12 455.205L1192.83 454.886C1191.8 454.631 1191.33 454.284 1191.33 453.614C1191.33 452.864 1192.12 452.318 1193.19 452.318C1194.36 452.318 1194.85 452.966 1195.08 453.568L1196.28 453.227ZM1198.46 460H1199.8V451.273H1198.46V460ZM1199.14 449.818C1199.67 449.818 1200.1 449.409 1200.1 448.909C1200.1 448.409 1199.67 448 1199.14 448C1198.62 448 1198.19 448.409 1198.19 448.909C1198.19 449.409 1198.62 449.818 1199.14 449.818ZM1205.55 460.182C1207.24 460.182 1207.8 459.136 1208.1 458.659H1208.26V460H1209.55V448.364H1208.21V452.659H1208.1C1207.8 452.205 1207.28 451.159 1205.58 451.159C1203.37 451.159 1201.85 452.909 1201.85 455.659C1201.85 458.432 1203.37 460.182 1205.55 460.182ZM1205.74 458.977C1204.05 458.977 1203.19 457.5 1203.19 455.636C1203.19 453.795 1204.03 452.364 1205.74 452.364C1207.37 452.364 1208.24 453.682 1208.24 455.636C1208.24 457.614 1207.35 458.977 1205.74 458.977ZM1215.86 460.182C1217.63 460.182 1218.92 459.295 1219.33 457.977L1218.04 457.614C1217.7 458.523 1216.91 458.977 1215.86 458.977C1214.28 458.977 1213.2 457.96 1213.13 456.091H1219.47V455.523C1219.47 452.273 1217.54 451.159 1215.72 451.159C1213.36 451.159 1211.79 453.023 1211.79 455.705C1211.79 458.386 1213.33 460.182 1215.86 460.182ZM1213.13 454.932C1213.22 453.574 1214.18 452.364 1215.72 452.364C1217.17 452.364 1218.11 453.455 1218.11 454.932H1213.13Z" fill="#323235"/>
<path d="M20.8864 460L22.0568 456.705H26.7614L27.9318 460H29.4091L25.1364 448.364H23.6818L19.4091 460H20.8864ZM22.5 455.455L24.3636 450.205H24.4545L26.3182 455.455H22.5ZM34.5625 463.455C36.6534 463.455 38.3352 462.5 38.3352 460.25V451.273H37.0398V452.659H36.9034C36.608 452.205 36.0625 451.159 34.358 451.159C32.1534 451.159 30.6307 452.909 30.6307 455.591C30.6307 458.318 32.2216 459.864 34.3352 459.864C36.0398 459.864 36.5852 458.864 36.8807 458.386H36.9943V460.159C36.9943 461.614 35.9716 462.273 34.5625 462.273C32.9773 462.273 32.4205 461.438 32.0625 460.955L30.9943 461.705C31.5398 462.619 32.6136 463.455 34.5625 463.455ZM34.517 458.659C32.8352 458.659 31.9716 457.386 31.9716 455.568C31.9716 453.795 32.8125 452.364 34.517 452.364C36.1534 452.364 37.017 453.682 37.017 455.568C37.017 457.5 36.1307 458.659 34.517 458.659ZM44.4489 460.182C46.2216 460.182 47.517 459.295 47.9261 457.977L46.6307 457.614C46.2898 458.523 45.5 458.977 44.4489 458.977C42.875 458.977 41.7898 457.96 41.7273 456.091H48.0625V455.523C48.0625 452.273 46.1307 451.159 44.3125 451.159C41.9489 451.159 40.3807 453.023 40.3807 455.705C40.3807 458.386 41.9261 460.182 44.4489 460.182ZM41.7273 454.932C41.8182 453.574 42.7784 452.364 44.3125 452.364C45.767 452.364 46.6989 453.455 46.6989 454.932H41.7273ZM51.4432 454.75C51.4432 453.227 52.3864 452.364 53.6705 452.364C54.9148 452.364 55.6705 453.176 55.6705 454.545V460H57.0114V454.455C57.0114 452.227 55.8239 451.159 54.0568 451.159C52.7386 451.159 51.9205 451.75 51.5114 452.636H51.3977V451.273H50.1023V460H51.4432V454.75ZM63.0071 460.182C64.9389 460.182 66.2116 459 66.4389 457.455H65.098C64.848 458.409 64.0526 458.977 63.0071 458.977C61.4162 458.977 60.3935 457.659 60.3935 455.636C60.3935 453.659 61.4389 452.364 63.0071 452.364C64.1889 452.364 64.8935 453.091 65.098 453.886H66.4389C66.2116 452.25 64.8253 451.159 62.9844 451.159C60.6207 451.159 59.0526 453.023 59.0526 455.682C59.0526 458.295 60.5526 460.182 63.0071 460.182ZM69.2628 463.25C70.473 463.25 71.331 462.608 71.831 461.273L75.5469 451.295L74.081 451.273L71.6719 458.227H71.581L69.1719 451.273H67.7173L70.9446 460.045L70.6946 460.727C70.2173 462.034 69.6037 462.159 68.6264 461.909L68.2855 463.091C68.4219 463.159 68.8082 463.25 69.2628 463.25Z" fill="#323235"/>
</svg>
