<svg width="168" height="40" viewBox="0 0 168 40" fill="none" xmlns="http://www.w3.org/2000/svg">
<path d="M47.5227 26H48.9773L51.5455 16.7273H51.6364L54.2045 26H55.6591L58.8409 14.3636H57.4091L54.9773 23.8409H54.8636L52.3864 14.3636H50.7955L48.3182 23.8409H48.2045L45.7727 14.3636H44.3409L47.5227 26ZM61.7557 20.75C61.7557 19.2273 62.7273 18.3636 64.0511 18.3636C65.3125 18.3636 66.0739 19.1591 66.0739 20.5455V26H67.4148V20.4545C67.4148 18.2102 66.2216 17.1591 64.4375 17.1591C63.0625 17.1591 62.2784 17.733 61.8693 18.6364H61.7557V14.3636H60.4148V26H61.7557V20.75ZM72.4361 26.2045C73.9588 26.2045 74.7543 25.3864 75.027 24.8182H75.0952V26H76.4361V20.25C76.4361 17.4773 74.3224 17.1591 73.2088 17.1591C71.8906 17.1591 70.3906 17.6136 69.7088 19.2045L70.9815 19.6591C71.277 19.0227 71.9759 18.3409 73.2543 18.3409C74.4872 18.3409 75.0952 18.9943 75.0952 20.1136V20.1591C75.0952 20.8068 74.4361 20.75 72.8452 20.9545C71.2259 21.1648 69.4588 21.5227 69.4588 23.5227C69.4588 25.2273 70.777 26.2045 72.4361 26.2045ZM72.6406 25C71.5724 25 70.7997 24.5227 70.7997 23.5909C70.7997 22.5682 71.7315 22.25 72.777 22.1136C73.3452 22.0455 74.8679 21.8864 75.0952 21.6136V22.8409C75.0952 23.9318 74.2315 25 72.6406 25ZM82.679 17.2727H80.8153V15.1818H79.4744V17.2727H78.1562V18.4091H79.4744V23.8636C79.4744 25.3864 80.7017 26.1136 81.8381 26.1136C82.3381 26.1136 82.6562 26.0227 82.8381 25.9545L82.5653 24.75C82.4517 24.7727 82.2699 24.8182 81.9744 24.8182C81.3835 24.8182 80.8153 24.6364 80.8153 23.5V18.4091H82.679V17.2727ZM91.7642 26.2045C93.2869 26.2045 94.0824 25.3864 94.3551 24.8182H94.4233V26H95.7642V20.25C95.7642 17.4773 93.6506 17.1591 92.5369 17.1591C91.2188 17.1591 89.7188 17.6136 89.0369 19.2045L90.3097 19.6591C90.6051 19.0227 91.304 18.3409 92.5824 18.3409C93.8153 18.3409 94.4233 18.9943 94.4233 20.1136V20.1591C94.4233 20.8068 93.7642 20.75 92.1733 20.9545C90.554 21.1648 88.7869 21.5227 88.7869 23.5227C88.7869 25.2273 90.1051 26.2045 91.7642 26.2045ZM91.9688 25C90.9006 25 90.1278 24.5227 90.1278 23.5909C90.1278 22.5682 91.0597 22.25 92.1051 22.1136C92.6733 22.0455 94.196 21.8864 94.4233 21.6136V22.8409C94.4233 23.9318 93.5597 25 91.9688 25ZM99.5526 20.75C99.5526 19.2273 100.496 18.3636 101.78 18.3636C103.024 18.3636 103.78 19.1761 103.78 20.5455V26H105.121V20.4545C105.121 18.2273 103.933 17.1591 102.166 17.1591C100.848 17.1591 100.03 17.75 99.6207 18.6364H99.5071V17.2727H98.2116V26H99.5526V20.75ZM110.866 26.1818C112.548 26.1818 113.116 25.1364 113.412 24.6591H113.571V26H114.866V14.3636H113.526V18.6591H113.412C113.116 18.2045 112.594 17.1591 110.889 17.1591C108.685 17.1591 107.162 18.9091 107.162 21.6591C107.162 24.4318 108.685 26.1818 110.866 26.1818ZM111.048 24.9773C109.366 24.9773 108.503 23.5 108.503 21.6364C108.503 19.7955 109.344 18.3636 111.048 18.3636C112.685 18.3636 113.548 19.6818 113.548 21.6364C113.548 23.6136 112.662 24.9773 111.048 24.9773ZM123.986 26H125.304L127.213 19.2955H127.349L129.259 26H130.577L133.236 17.2727H131.827L129.94 23.9318H129.849L128.009 17.2727H126.577L124.713 23.9545H124.622L122.736 17.2727H121.327L123.986 26ZM136.349 20.75C136.349 19.2273 137.321 18.3636 138.645 18.3636C139.906 18.3636 140.668 19.1591 140.668 20.5455V26H142.009V20.4545C142.009 18.2102 140.815 17.1591 139.031 17.1591C137.656 17.1591 136.872 17.733 136.463 18.6364H136.349V14.3636H135.009V26H136.349V20.75ZM148.121 26.1818C149.893 26.1818 151.189 25.2955 151.598 23.9773L150.303 23.6136C149.962 24.5227 149.172 24.9773 148.121 24.9773C146.547 24.9773 145.462 23.9602 145.399 22.0909H151.734V21.5227C151.734 18.2727 149.803 17.1591 147.984 17.1591C145.621 17.1591 144.053 19.0227 144.053 21.7045C144.053 24.3864 145.598 26.1818 148.121 26.1818ZM145.399 20.9318C145.49 19.5739 146.45 18.3636 147.984 18.3636C149.439 18.3636 150.371 19.4545 150.371 20.9318H145.399ZM153.774 26H155.115V20.4773C155.115 19.2955 156.047 18.4318 157.32 18.4318C157.678 18.4318 158.047 18.5 158.138 18.5227V17.1591C157.984 17.1477 157.632 17.1364 157.433 17.1364C156.388 17.1364 155.479 17.7273 155.161 18.5909H155.07V17.2727H153.774V26ZM163.121 26.1818C164.893 26.1818 166.189 25.2955 166.598 23.9773L165.303 23.6136C164.962 24.5227 164.172 24.9773 163.121 24.9773C161.547 24.9773 160.462 23.9602 160.399 22.0909H166.734V21.5227C166.734 18.2727 164.803 17.1591 162.984 17.1591C160.621 17.1591 159.053 19.0227 159.053 21.7045C159.053 24.3864 160.598 26.1818 163.121 26.1818ZM160.399 20.9318C160.49 19.5739 161.45 18.3636 162.984 18.3636C164.439 18.3636 165.371 19.4545 165.371 20.9318H160.399Z" fill="#74747B"/>
<g filter="url(#filter0_f)">
<circle cx="18" cy="19" r="10" fill="url(#paint0_radial)"/>
<circle cx="18" cy="19" r="10" fill="url(#paint1_linear)" fill-opacity="0.25"/>
</g>
<defs>
<filter id="filter0_f" x="0" y="1" width="36" height="36" filterUnits="userSpaceOnUse" color-interpolation-filters="sRGB">
<feFlood flood-opacity="0" result="BackgroundImageFix"/>
<feBlend mode="normal" in="SourceGraphic" in2="BackgroundImageFix" result="shape"/>
<feGaussianBlur stdDeviation="4" result="effect1_foregroundBlur"/>
</filter>
<radialGradient id="paint0_radial" cx="0" cy="0" r="1" gradientUnits="userSpaceOnUse" gradientTransform="translate(18.8397 18.4754) rotate(90) scale(11.0652 11.0886)">
<stop stop-color="#FFD465"/>
<stop offset="0.744792" stop-color="#FF6D1C" stop-opacity="0.78"/>
<stop offset="1" stop-color="#FF0505" stop-opacity="0.66"/>
</radialGradient>
<linearGradient id="paint1_linear" x1="17.857" y1="9" x2="10.4604" y2="23.2909" gradientUnits="userSpaceOnUse">
<stop stop-color="#F479FF"/>
<stop offset="1" stop-color="white" stop-opacity="0"/>
</linearGradient>
</defs>
</svg>
