<svg width="11" height="15" viewBox="0 0 11 15" fill="none" xmlns="http://www.w3.org/2000/svg">
<path d="M1.5625 14.7031H8.63281C9.60156 14.7031 10.0781 14.2266 10.0781 13.1719V7.71094C10.0781 6.76562 9.6875 6.28125 8.88281 6.20312V4.35156C8.88281 1.5625 7.03906 0.210938 5.10156 0.210938C3.15625 0.210938 1.3125 1.5625 1.3125 4.35156V6.23438C0.570312 6.35156 0.117188 6.82812 0.117188 7.71094V13.1719C0.117188 14.2266 0.59375 14.7031 1.5625 14.7031ZM2.57812 4.20312C2.57812 2.39062 3.73438 1.42188 5.10156 1.42188C6.46094 1.42188 7.61719 2.39062 7.61719 4.20312V6.1875L2.57812 6.20312V4.20312Z" fill="#74747B"/>
</svg>
