<svg xmlns="http://www.w3.org/2000/svg" xmlns:xlink="http://www.w3.org/1999/xlink" width="1024" height="1024" viewBox="0 0 1024 1024">
  <defs>
    <rect id="logo-gay-2-a" width="1024" height="1032" rx="200"/>
  </defs>
  <g fill="none" fill-rule="evenodd">
    <mask id="logo-gay-2-b" fill="#fff">
      <use xlink:href="#logo-gay-2-a"/>
    </mask>
    <use fill="#D8D8D8" xlink:href="#logo-gay-2-a"/>
    <rect width="1023" height="1031" x=".5" y=".5" stroke="#979797" rx="200"/>
    <g mask="url(#logo-gay-2-b)">
      <g transform="rotate(45 1181.004 578.33)">
        <rect width="220" height="1973" x=".692" y=".308" fill="#FF3A3A"/>
        <rect width="220" height="1973" x="221.31" y="18.692" fill="#FF9400"/>
        <rect width="220" height="1973" x="441.22" y="17.985" fill="#FAE000"/>
        <polygon fill="#00AE6D" points="661.837 17.985 881.837 17.985 881.837 1990.985 661.837 1990.985"/>
        <rect width="220" height="1973" x="881.04" y="17.985" fill="#0081CA"/>
        <polygon fill="#7D59AB" points="1101.658 17.985 1321.658 17.985 1321.658 1990.985 1101.658 1990.985"/>
      </g>
    </g>
    <path fill="#F7F7F7" d="M632,287.466471 L632,242 L812,242 L812,782 L632,782 L632,736.533529 C589.097059,765.25185 537.504399,782 482,782 C332.883118,782 212,661.116882 212,512 C212,362.883118 332.883118,242 482,242 C537.504399,242 589.097059,258.74815 632,287.466471 Z M512,623.176471 C578.27417,623.176471 632,573.401069 632,512 C632,450.598931 578.27417,400.823529 512,400.823529 C445.72583,400.823529 392,450.598931 392,512 C392,573.401069 445.72583,623.176471 512,623.176471 Z" mask="url(#logo-gay-2-b)"/>
  </g>
</svg>
