<?xml version="1.0" encoding="UTF-8"?>
<svg width="19px" height="17px" viewBox="0 0 19 17" version="1.1" xmlns="http://www.w3.org/2000/svg" xmlns:xlink="http://www.w3.org/1999/xlink">
    <!-- Generator: Sketch 46.2 (44496) - http://www.bohemiancoding.com/sketch -->
    <title>logo</title>
    <desc>Created with Sketch.</desc>
    <defs></defs>
    <g id="Page-1" stroke="none" stroke-width="1" fill="none" fill-rule="evenodd">
        <g id="desktop-menu" transform="translate(-1325.000000, -56.000000)" fill="#2C2C2F">
            <path d="M1338.3,57.4313519 L1338.3,56 L1344,56 L1344,73 L1338.3,73 L1338.3,71.5686481 C1336.94141,72.4727434 1335.30764,73 1333.55,73 C1328.82797,73 1325,69.1944204 1325,64.5 C1325,59.8055796 1328.82797,56 1333.55,56 C1335.30764,56 1336.94141,56.5272566 1338.3,57.4313519 Z M1334.5,68 C1336.59868,68 1338.3,66.4329966 1338.3,64.5 C1338.3,62.5670034 1336.59868,61 1334.5,61 C1332.40132,61 1330.7,62.5670034 1330.7,64.5 C1330.7,66.4329966 1332.40132,68 1334.5,68 Z" id="logo"></path>
        </g>
    </g>
</svg>