<svg width="690" height="689" viewBox="0 0 690 689" fill="none" xmlns="http://www.w3.org/2000/svg">
<g filter="url(#filter0_f)">
<path d="M643 209C634 141 547 30 445 30C343 30 319 111 247 172C175 233 30 235 30 328C30 421 247 659 447 659C514 659 590.814 592.33 622 519C659 432 652 277 643 209Z" fill="white"/>
</g>
<g filter="url(#filter1_f)">
<path d="M643 209C619.802 144.449 547 30 445 30C343 30 319 111 247 172C175 233 30 235 30 328C30 421 247 659 447 659C514 659 590.814 592.33 622 519C643.594 468.224 659.201 394.287 659.17 328C659.148 280.71 654.5 241 643 209Z" fill="url(#paint0_radial)"/>
<path d="M643 209C619.802 144.449 547 30 445 30C343 30 319 111 247 172C175 233 30 235 30 328C30 421 247 659 447 659C514 659 590.814 592.33 622 519C643.594 468.224 659.201 394.287 659.17 328C659.148 280.71 654.5 241 643 209Z" fill="url(#paint1_linear)" fill-opacity="0.25"/>
</g>
<defs>
<filter id="filter0_f" x="0" y="0" width="680.17" height="689" filterUnits="userSpaceOnUse" color-interpolation-filters="sRGB">
<feFlood flood-opacity="0" result="BackgroundImageFix"/>
<feBlend mode="normal" in="SourceGraphic" in2="BackgroundImageFix" result="shape"/>
<feGaussianBlur stdDeviation="15" result="effect1_foregroundBlur"/>
</filter>
<filter id="filter1_f" x="0" y="0" width="689.17" height="689" filterUnits="userSpaceOnUse" color-interpolation-filters="sRGB">
<feFlood flood-opacity="0" result="BackgroundImageFix"/>
<feBlend mode="normal" in="SourceGraphic" in2="BackgroundImageFix" result="shape"/>
<feGaussianBlur stdDeviation="15" result="effect1_foregroundBlur"/>
</filter>
<radialGradient id="paint0_radial" cx="0" cy="0" r="1" gradientUnits="userSpaceOnUse" gradientTransform="translate(371 328) rotate(90) scale(348 348.832)">
<stop stop-color="#FFD465"/>
<stop offset="0.744792" stop-color="#FF6D1C" stop-opacity="0.78"/>
<stop offset="1" stop-color="#FF0505" stop-opacity="0.66"/>
</radialGradient>
<linearGradient id="paint1_linear" x1="340.085" y1="30" x2="107.5" y2="479.5" gradientUnits="userSpaceOnUse">
<stop stop-color="#F479FF"/>
<stop offset="1" stop-color="white" stop-opacity="0"/>
</linearGradient>
</defs>
</svg>
